# xmcd
#
# Track frame offsets: 
#        150
#        14276
#        29922
#        47409
#        65219
#        79876
#        94213
#        112766
#        128314
#        145262
#        163170
#
# Disc length: 2473 seconds
#
# Revision: 0
# Processed by: cddbd v1.5.2PL0 Copyright (c) Steve Scherf et al.
# Submitted via: ExactAudioCopy v0.99pb4
#
DISCID=9009a70b
DTITLE=My Raining Stars - From St Saviour to Quickwell
DYEAR=2008
DGENRE=Rock
TTITLE0=Gone For Ever More
TTITLE1=Riding For a Fall
TTITLE2=Head Over Heels
TTITLE3=All This Time
TTITLE4=Twisting Over My Soul
TTITLE5=Most of Her Days
TTITLE6=Better Days
TTITLE7=Shadows
TTITLE8=Shared Values
TTITLE9=Express and Share
TTITLE10=No Choice but to Accept
EXTD=
EXTT0=
EXTT1=
EXTT2=
EXTT3=
EXTT4=
EXTT5=
EXTT6=
EXTT7=
EXTT8=
EXTT9=
EXTT10=
PLAYORDER=
